<svg width="415" height="415" xmlns="http://www.w3.org/2000/svg" xmlns:xlink="http://www.w3.org/1999/xlink" xml:space="preserve" overflow="hidden"><g transform="translate(-2648 -3440)"><path d="M2648 3440C2784.95 3440 2921.9 3440 3063 3440 3063 3576.95 3063 3713.9 3063 3855 2926.05 3855 2789.1 3855 2648 3855 2648 3718.05 2648 3581.1 2648 3440Z" fill="#FCFCFD"/><path d="M2980.78 3696.18C2984.15 3697.3 2984.15 3697.3 2986.92 3700.07 2987.09 3705.08 2987.09 3705.08 2986.92 3709.75 2987.91 3709.84 2988.91 3709.92 2989.94 3710.01 2995.26 3711.55 2997.3 3713.74 3000.75 3718.05 3001.36 3722 3001.57 3725.09 3001.42 3729.01 3001.41 3730.05 3001.41 3731.08 3001.4 3732.15 3001.36 3735.43 3001.27 3738.72 3001.18 3742 3001.15 3744.23 3001.12 3746.47 3001.09 3748.7 3001.01 3754.16 3000.89 3759.62 3000.75 3765.08 3002.43 3765.01 3002.43 3765.01 3004.14 3764.94 3005.62 3764.9 3007.09 3764.86 3008.62 3764.82 3010.08 3764.78 3011.54 3764.73 3013.04 3764.68 3018.88 3765.23 3022.27 3767.65 3026.77 3771.22 3028.42 3773.38 3028.42 3773.38 3028.42 3778.92 3032.98 3778.92 3037.55 3778.92 3042.25 3778.92 3042.16 3777.41 3042.08 3775.89 3041.99 3774.34 3042.25 3769.23 3042.25 3769.23 3043.89 3766.47 3046.4 3765.08 3046.4 3765.08 3049.94 3765.34 3053.32 3766.47 3053.32 3766.47 3056.08 3769.23 3056.96 3775.03 3056.68 3780.24 3054.44 3785.66 3051.59 3789 3048.95 3790.83 3045.02 3792.75 3044.1 3792.75 3043.19 3792.75 3042.25 3792.75 3042.32 3794.43 3042.32 3794.43 3042.4 3796.14 3042.43 3797.62 3042.47 3799.1 3042.51 3800.62 3042.58 3802.81 3042.58 3802.81 3042.65 3805.04 3042.2 3809.92 3041 3812.37 3038.1 3816.27 3032.23 3820.42 3032.23 3820.42 3028.42 3820.42 3028.42 3824.98 3028.42 3829.55 3028.42 3834.25 3029.93 3834.17 3031.44 3834.08 3033 3833.99 3038.1 3834.25 3038.1 3834.25 3040.87 3835.89 3042.25 3838.4 3042.25 3838.4 3041.99 3841.95 3040.87 3845.32 3040.87 3845.32 3038.1 3848.08 3031.96 3849.13 3025.54 3849.64 3020.03 3846.42 3017.78 3844.28 3017.78 3844.28 3014.58 3839.78 3014.58 3837.96 3014.58 3836.13 3014.58 3834.25 3012.93 3834.3 3011.28 3834.35 3009.58 3834.4 3007.42 3834.44 3005.25 3834.47 3003.08 3834.51 3002 3834.54 3000.91 3834.58 2999.79 3834.62 2998.74 3834.63 2997.69 3834.64 2996.62 3834.66 2995.65 3834.68 2994.69 3834.7 2993.7 3834.72 2990.22 3834.1 2988.99 3832.91 2986.92 3830.1 2987.18 3825.78 2987.18 3825.78 2988.3 3821.8 2992.39 3819.76 2996.24 3820.33 3000.75 3820.42 3000.86 3819.39 3000.98 3818.36 3001.09 3817.3 3002.35 3812.72 3004.03 3810.96 3007.67 3807.97 3012.21 3806.45 3015.6 3806.45 3020.38 3806.5 3021.88 3806.51 3023.38 3806.52 3024.93 3806.54 3026.66 3806.56 3026.66 3806.56 3028.42 3806.58 3028.42 3802.02 3028.42 3797.45 3028.42 3792.75 3026.92 3792.62 3026.92 3792.62 3025.39 3792.49 3020.21 3790.99 3017.96 3788.59 3014.58 3784.45 3014.58 3782.62 3014.58 3780.8 3014.58 3778.92 3010.02 3778.92 3005.45 3778.92 3000.75 3778.92 3000.38 3780.2 3000.01 3781.49 2999.63 3782.81 2997.36 3788.88 2997.36 3788.88 2993.83 3791.37 2990.11 3792.32 2990.11 3792.32 2986.92 3792.75 2987 3794.26 2987.09 3795.77 2987.18 3797.33 2986.92 3802.43 2986.92 3802.43 2985.36 3805.2 2981.4 3807.31 2978.66 3806.39 2974.47 3805.2 2972.42 3801.11 2973 3797.26 2973.08 3792.75 2968.52 3792.75 2963.95 3792.75 2959.25 3792.75 2959.25 3797.32 2959.25 3801.88 2959.25 3806.58 2960.76 3806.5 2962.27 3806.41 2963.83 3806.32 2968.93 3806.58 2968.93 3806.58 2971.7 3808.23 2973.08 3810.73 2973.08 3810.73 2972.82 3814.28 2971.7 3817.65 2971.7 3817.65 2968.93 3820.42 2965.19 3820.73 2965.19 3820.73 2960.49 3820.69 2958.82 3820.68 2957.14 3820.67 2955.41 3820.66 2953.65 3820.64 2951.9 3820.61 2950.08 3820.59 2948.32 3820.58 2946.55 3820.57 2944.72 3820.55 2940.34 3820.52 2935.96 3820.47 2931.58 3820.42 2931.61 3821.96 2931.65 3823.5 2931.68 3825.09 2931.58 3830.1 2931.58 3830.1 2930.03 3832.87 2926.07 3834.98 2923.33 3834.05 2919.13 3832.87 2916.37 3827.35 2916.85 3820.87 2917.75 3814.88 2920.11 3810.84 2922.11 3809.39 2926.05 3806.58 2927.88 3806.58 2929.7 3806.58 2931.58 3806.58 2931.58 3792.89 2931.58 3779.19 2931.58 3765.08 2929.3 3764.63 2927.02 3764.17 2924.67 3763.7 2920.78 3761.37 2920.78 3761.37 2917.75 3756.78 2917.16 3750.29 2917.35 3743.92 2917.75 3737.42 2916.13 3737.15 2916.13 3737.15 2914.49 3736.88 2909.84 3735.81 2908.2 3734.23 2905.3 3730.5 2904.26 3726.7 2904.26 3726.7 2903.92 3723.58 2902.4 3723.67 2900.89 3723.76 2899.33 3723.84 2894.23 3723.58 2894.23 3723.58 2891.47 3722.03 2889.36 3718.07 2890.28 3715.33 2891.47 3711.13 2896.67 3708.53 2902.41 3708.85 2908.07 3709.75 2912.03 3711.89 2915.18 3714.33 2917.75 3718.05 2917.75 3719.88 2917.75 3721.7 2917.75 3723.58 2922.31 3723.58 2926.88 3723.58 2931.58 3723.58 2931.5 3722.07 2931.41 3720.56 2931.32 3719 2931.58 3713.9 2931.58 3713.9 2933.23 3711.13 2935.73 3709.75 2935.73 3709.75 2939.28 3710.01 2942.65 3711.13 2942.65 3711.13 2945.42 3713.9 2945.59 3718.92 2945.59 3718.92 2945.42 3723.58 2949.98 3723.58 2954.55 3723.58 2959.25 3723.58 2959.33 3722.59 2959.42 3721.59 2959.51 3720.56 2961 3715.38 2963.41 3713.12 2967.55 3709.75 2969.38 3709.75 2971.2 3709.75 2973.08 3709.75 2973 3708.24 2972.91 3706.73 2972.82 3705.17 2973.08 3700.07 2973.08 3700.07 2974.73 3697.3 2977.23 3695.92 2977.23 3695.92 2980.78 3696.18Z" fill="#283E67"/><path d="M2700.08 3750.56C2703.05 3750.56 2706.02 3750.5 2708.99 3750.44 2721.58 3750.33 2732.3 3751.7 2741.93 3760.6 2751.82 3771.01 2752.45 3782.2 2752.37 3795.9 2752.36 3798.79 2752.4 3801.67 2752.44 3804.55 2752.51 3818.36 2750.59 3829.58 2740.68 3839.78 2729.34 3848.8 2717.19 3848.52 2703.33 3848.43 2700.97 3848.45 2700.97 3848.45 2698.57 3848.46 2684.37 3848.43 2673.89 3846.98 2663.22 3837.02 2654.68 3826.23 2654.36 3815.42 2654.33 3802.23 2654.31 3799.35 2654.24 3796.47 2654.17 3793.59 2654.02 3781 2655.46 3770.6 2664.26 3761.07 2674.81 3751.06 2686.23 3750.51 2700.08 3750.56Z" fill="#FAFAFA"/><path d="M3004.42 3446.22C3007.39 3446.22 3010.35 3446.17 3013.32 3446.11 3025.92 3446 3036.63 3447.36 3046.26 3456.26 3056.16 3466.68 3056.79 3477.87 3056.7 3491.57 3056.69 3494.45 3056.73 3497.33 3056.77 3500.22 3056.84 3514.03 3054.93 3525.25 3045.02 3535.45 3033.68 3544.47 3021.53 3544.19 3007.67 3544.1 3005.31 3544.11 3005.31 3544.11 3002.9 3544.13 2988.7 3544.1 2978.22 3542.64 2967.55 3532.68 2959.01 3521.9 2958.7 3511.09 2958.66 3497.9 2958.65 3495.01 2958.58 3492.14 2958.51 3489.25 2958.35 3476.66 2959.79 3466.27 2968.6 3456.74 2979.14 3446.73 2990.56 3446.18 3004.42 3446.22Z" fill="#FAFAFA"/><path d="M2700.08 3446.22C2703.05 3446.22 2706.02 3446.17 2708.99 3446.11 2721.58 3446 2732.3 3447.36 2741.93 3456.26 2751.82 3466.68 2752.45 3477.87 2752.37 3491.57 2752.36 3494.45 2752.4 3497.33 2752.44 3500.22 2752.51 3514.03 2750.59 3525.25 2740.68 3535.45 2729.34 3544.47 2717.19 3544.19 2703.33 3544.1 2700.97 3544.11 2700.97 3544.11 2698.57 3544.13 2684.37 3544.1 2673.89 3542.64 2663.22 3532.68 2654.68 3521.9 2654.36 3511.09 2654.33 3497.9 2654.31 3495.01 2654.24 3492.14 2654.17 3489.25 2654.02 3476.66 2655.46 3466.27 2664.26 3456.74 2674.81 3446.73 2686.23 3446.18 2700.08 3446.22Z" fill="#FBFBFB"/><path d="M2787.11 3447.18C2790.48 3448.3 2790.48 3448.3 2793.25 3451.07 2793.42 3456.08 2793.42 3456.08 2793.25 3460.75 2794.5 3461.09 2795.76 3461.43 2797.05 3461.79 2801.55 3463.52 2801.55 3463.52 2807.08 3469.05 2807.08 3475.44 2807.08 3481.83 2807.08 3488.42 2825.34 3488.42 2843.6 3488.42 2862.42 3488.42 2862.09 3477.86 2862.09 3477.86 2861.67 3467.31 2861.65 3465.98 2861.63 3464.66 2861.61 3463.29 2861.56 3461.94 2861.52 3460.59 2861.47 3459.21 2862.63 3454.31 2864.3 3451.9 2868 3448.55 2873.36 3445.33 2879.12 3445.82 2885.2 3445.96 2887.28 3445.96 2887.28 3445.96 2889.4 3445.97 2892.32 3445.98 2895.23 3446.01 2898.15 3446.06 2902.61 3446.14 2907.07 3446.15 2911.53 3446.15 2914.37 3446.17 2917.21 3446.19 2920.05 3446.22 2921.38 3446.22 2922.71 3446.23 2924.08 3446.23 2930.95 3446.38 2935.66 3446.66 2941.27 3451.07 2942.51 3451.92 2942.51 3451.92 2943.77 3452.8 2946.57 3456.92 2946.07 3460.07 2945.42 3464.9 2942.62 3469.71 2939.73 3472.79 2934.35 3474.58 2931.5 3474.68 2928.64 3474.7 2925.79 3474.67 2923.54 3474.65 2923.54 3474.65 2921.23 3474.63 2920.08 3474.62 2918.93 3474.6 2917.75 3474.58 2917.83 3476.1 2917.92 3477.61 2918.01 3479.17 2917.75 3484.27 2917.75 3484.27 2916.19 3487.03 2912.24 3489.14 2909.49 3488.22 2905.3 3487.03 2903.01 3482.46 2903.78 3477.36 2903.83 3472.34 2903.86 3468.51 2903.89 3464.69 2903.92 3460.75 2894.79 3460.75 2885.66 3460.75 2876.25 3460.75 2876.25 3474.45 2876.25 3488.14 2876.25 3502.25 2879.44 3502.25 2882.64 3502.25 2885.93 3502.25 2888.7 3503.89 2888.7 3503.89 2890.08 3506.4 2889.74 3511.02 2889.25 3512.77 2885.93 3516.08 2879.8 3517.13 2873.37 3517.64 2867.87 3514.42 2865.61 3512.28 2865.61 3512.28 2862.42 3507.78 2862.42 3505.96 2862.42 3504.13 2862.42 3502.25 2848.72 3502.25 2835.03 3502.25 2820.92 3502.25 2820.92 3506.81 2820.92 3511.38 2820.92 3516.08 2821.91 3516.17 2822.91 3516.25 2823.94 3516.34 2829.46 3517.94 2831.44 3519.65 2834.75 3524.38 2835.69 3530.41 2836.62 3537.01 2832.9 3542.16 2830.6 3543.75 2830.6 3543.75 2826.28 3543.49 2824.31 3542.93 2824.31 3542.93 2822.3 3542.37 2820.25 3538.28 2820.83 3534.42 2820.92 3529.92 2819.92 3529.83 2818.92 3529.75 2817.89 3529.66 2812.71 3528.16 2810.46 3525.76 2807.08 3521.62 2807.08 3519.79 2807.08 3517.96 2807.08 3516.08 2806.08 3516 2805.09 3515.91 2804.06 3515.82 2798.49 3514.22 2796.69 3512.51 2793.25 3507.78 2792.39 3502.09 2792.6 3496.5 2792.82 3490.75 2792.85 3489.2 2792.88 3487.65 2792.91 3486.05 2792.99 3482.22 2793.11 3478.4 2793.25 3474.58 2791.6 3474.63 2789.95 3474.68 2788.25 3474.73 2786.08 3474.77 2783.92 3474.81 2781.75 3474.84 2780.66 3474.88 2779.58 3474.91 2778.46 3474.95 2777.41 3474.96 2776.36 3474.97 2775.28 3474.99 2774.32 3475.01 2773.36 3475.03 2772.36 3475.05 2768.89 3474.43 2767.66 3473.25 2765.58 3470.43 2765.84 3466.11 2765.84 3466.11 2766.97 3462.13 2771.06 3460.09 2774.91 3460.67 2779.42 3460.75 2779.33 3459.24 2779.24 3457.73 2779.16 3456.17 2779.42 3451.07 2779.42 3451.07 2781.06 3448.3 2783.57 3446.92 2783.57 3446.92 2787.11 3447.18Z" fill="#41315D"/><path d="M2814.78 3710.01C2818.15 3711.13 2818.15 3711.13 2820.92 3713.9 2820.92 3717.1 2820.92 3720.29 2820.92 3723.58 2830.05 3723.58 2839.18 3723.58 2848.58 3723.58 2849.04 3721.3 2849.5 3719.02 2849.97 3716.67 2853.59 3711.88 2855.62 3710.01 2861.55 3708.8 2867.97 3710.02 2872.29 3712.8 2876.25 3718.05 2876.25 3719.88 2876.25 3721.7 2876.25 3723.58 2877.76 3723.5 2879.27 3723.41 2880.83 3723.32 2885.93 3723.58 2885.93 3723.58 2888.7 3725.23 2890.08 3727.73 2890.08 3727.73 2889.82 3731.28 2888.7 3734.65 2888.7 3734.65 2885.93 3737.42 2881.91 3737.62 2878.02 3737.68 2874 3737.59 2872.34 3737.57 2872.34 3737.57 2870.64 3737.55 2867.9 3737.52 2865.16 3737.47 2862.42 3737.42 2862.45 3738.96 2862.48 3740.5 2862.52 3742.09 2862.42 3747.1 2862.42 3747.1 2860.77 3749.78 2857.37 3751.77 2855.22 3751.85 2851.35 3751.25 2847.99 3746.21 2848.36 3743.35 2848.58 3737.42 2844.02 3737.42 2839.45 3737.42 2834.75 3737.42 2834.75 3741.98 2834.75 3746.55 2834.75 3751.25 2836.26 3751.17 2837.77 3751.08 2839.33 3750.99 2844.43 3751.25 2844.43 3751.25 2847.2 3752.89 2848.58 3755.4 2848.58 3755.4 2848.32 3758.95 2847.2 3762.32 2847.2 3762.32 2844.43 3765.08 2839.3 3765.87 2834.35 3765.84 2829.22 3765.08 2824.89 3761.71 2824.89 3761.71 2822.3 3758.17 2821.84 3757.71 2821.39 3757.25 2820.92 3756.78 2820.82 3753.53 2820.8 3750.27 2820.83 3747.01 2820.84 3745.23 2820.85 3743.44 2820.87 3741.6 2820.88 3740.22 2820.9 3738.84 2820.92 3737.42 2816.35 3737.42 2811.79 3737.42 2807.08 3737.42 2807.08 3751.11 2807.08 3764.81 2807.08 3778.92 2810.28 3778.92 2813.47 3778.92 2816.77 3778.92 2819.53 3780.56 2819.53 3780.56 2820.92 3783.07 2820.58 3787.69 2820.08 3789.44 2816.77 3792.75 2812.74 3792.95 2808.85 3793.01 2804.83 3792.92 2803.73 3792.91 2802.62 3792.9 2801.47 3792.89 2798.73 3792.85 2795.99 3792.8 2793.25 3792.75 2792.88 3794.03 2792.51 3795.32 2792.13 3796.64 2790.58 3800.79 2789.84 3802.66 2786.33 3805.2 2782.14 3806.68 2778.3 3807.06 2773.88 3806.58 2769.96 3804.54 2767.72 3802.14 2765.58 3798.28 2764.42 3794.28 2764.38 3791.22 2765.58 3787.22 2767.86 3783.76 2770.33 3781.07 2773.88 3778.92 2775.71 3778.92 2777.53 3778.92 2779.42 3778.92 2779.5 3777.92 2779.59 3776.92 2779.68 3775.89 2781.17 3770.71 2783.57 3768.46 2787.72 3765.08 2789.54 3765.08 2791.37 3765.08 2793.25 3765.08 2793.18 3763.64 2793.18 3763.64 2793.12 3762.17 2792.94 3757.78 2792.84 3753.39 2792.73 3749 2792.66 3747.49 2792.59 3745.97 2792.52 3744.42 2792.29 3731.8 2792.29 3731.8 2797.09 3726.66 2801.55 3723.58 2801.55 3723.58 2807.08 3723.58 2807 3722.07 2806.91 3720.56 2806.82 3719 2807.08 3713.9 2807.08 3713.9 2808.73 3711.13 2811.23 3709.75 2811.23 3709.75 2814.78 3710.01Z" fill="#492E5B"/><path d="M2700.08 3750.56C2703.05 3750.56 2706.02 3750.5 2708.99 3750.44 2721.58 3750.33 2732.3 3751.7 2741.93 3760.6 2751.82 3771.01 2752.45 3782.2 2752.37 3795.9 2752.36 3798.79 2752.4 3801.67 2752.44 3804.55 2752.51 3818.36 2750.59 3829.58 2740.68 3839.78 2729.34 3848.8 2717.19 3848.52 2703.33 3848.43 2700.97 3848.45 2700.97 3848.45 2698.57 3848.46 2684.37 3848.43 2673.89 3846.98 2663.22 3837.02 2654.68 3826.23 2654.36 3815.42 2654.33 3802.23 2654.31 3799.35 2654.24 3796.47 2654.17 3793.59 2654.02 3781 2655.46 3770.6 2664.26 3761.07 2674.81 3751.06 2686.23 3750.51 2700.08 3750.56ZM2672.9 3772C2667.48 3780.97 2668.04 3789.29 2668.06 3799.49 2668.02 3801.21 2667.98 3802.93 2667.94 3804.7 2667.92 3813.63 2668.31 3820.44 2673.37 3827.96 2681.99 3835.98 2692.15 3834.96 2703.16 3834.94 2704.88 3834.98 2706.59 3835.02 2708.36 3835.06 2717.3 3835.08 2724.11 3834.69 2731.63 3829.63 2739.68 3820.98 2738.58 3810.8 2738.52 3799.75 2738.55 3798.02 2738.58 3796.3 2738.61 3794.51 2738.62 3781.52 2738.62 3781.52 2732.38 3770.62 2723.73 3763.39 2714.3 3764.21 2703.42 3764.31 2700.85 3764.26 2700.85 3764.26 2698.23 3764.21 2688.53 3764.22 2679.87 3764.53 2672.9 3772Z" fill="#030303"/><path d="M3004.42 3446.22C3007.39 3446.22 3010.35 3446.17 3013.32 3446.11 3025.92 3446 3036.63 3447.36 3046.26 3456.26 3056.16 3466.68 3056.79 3477.87 3056.7 3491.57 3056.69 3494.45 3056.73 3497.33 3056.77 3500.22 3056.84 3514.03 3054.93 3525.25 3045.02 3535.45 3033.68 3544.47 3021.53 3544.19 3007.67 3544.1 3005.31 3544.11 3005.31 3544.11 3002.9 3544.13 2988.7 3544.1 2978.22 3542.64 2967.55 3532.68 2959.01 3521.9 2958.7 3511.09 2958.66 3497.9 2958.65 3495.01 2958.58 3492.14 2958.51 3489.25 2958.35 3476.66 2959.79 3466.27 2968.6 3456.74 2979.14 3446.73 2990.56 3446.18 3004.42 3446.22ZM2977.23 3467.67C2971.81 3476.63 2972.37 3484.96 2972.39 3495.16 2972.35 3496.88 2972.31 3498.59 2972.27 3500.36 2972.25 3509.3 2972.65 3516.11 2977.7 3523.63 2986.32 3531.65 2996.48 3530.63 3007.49 3530.61 3009.21 3530.65 3010.93 3530.69 3012.7 3530.73 3021.63 3530.75 3028.44 3530.35 3035.96 3525.3 3044.01 3516.64 3042.92 3506.47 3042.86 3495.42 3042.88 3493.69 3042.91 3491.96 3042.94 3490.18 3042.95 3477.19 3042.95 3477.19 3036.72 3466.28 3028.06 3459.06 3018.63 3459.88 3007.75 3459.97 3005.19 3459.92 3005.19 3459.92 3002.57 3459.87 2992.87 3459.89 2984.2 3460.2 2977.23 3467.67Z" fill="#030303"/><path d="M2700.08 3446.22C2703.05 3446.22 2706.02 3446.17 2708.99 3446.11 2721.58 3446 2732.3 3447.36 2741.93 3456.26 2751.82 3466.68 2752.45 3477.87 2752.37 3491.57 2752.36 3494.45 2752.4 3497.33 2752.44 3500.22 2752.51 3514.03 2750.59 3525.25 2740.68 3535.45 2729.34 3544.47 2717.19 3544.19 2703.33 3544.1 2700.97 3544.11 2700.97 3544.11 2698.57 3544.13 2684.37 3544.1 2673.89 3542.64 2663.22 3532.68 2654.68 3521.9 2654.36 3511.09 2654.33 3497.9 2654.31 3495.01 2654.24 3492.14 2654.17 3489.25 2654.02 3476.66 2655.46 3466.27 2664.26 3456.74 2674.81 3446.73 2686.23 3446.18 2700.08 3446.22ZM2672.9 3467.67C2667.48 3476.63 2668.04 3484.96 2668.06 3495.16 2668.02 3496.88 2667.98 3498.59 2667.94 3500.36 2667.92 3509.3 2668.31 3516.11 2673.37 3523.63 2681.99 3531.65 2692.15 3530.63 2703.16 3530.61 2704.88 3530.65 2706.59 3530.69 2708.36 3530.73 2717.3 3530.75 2724.11 3530.35 2731.63 3525.3 2739.68 3516.64 2738.58 3506.47 2738.52 3495.42 2738.55 3493.69 2738.58 3491.96 2738.61 3490.18 2738.62 3477.19 2738.62 3477.19 2732.38 3466.28 2723.73 3459.06 2714.3 3459.88 2703.42 3459.97 2700.85 3459.92 2700.85 3459.92 2698.23 3459.87 2688.53 3459.89 2679.87 3460.2 2672.9 3467.67Z" fill="#030303"/><path d="M2676.44 3557.84C2679.82 3558.97 2679.82 3558.97 2682.58 3561.73 2682.76 3566.75 2682.76 3566.75 2682.58 3571.42 2687.15 3571.42 2691.71 3571.42 2696.42 3571.42 2696.5 3570.42 2696.59 3569.42 2696.68 3568.39 2698.24 3562.97 2700.11 3560.85 2704.72 3557.58 2711.49 3556.75 2715.98 3558.07 2721.4 3562.17 2724.08 3565.88 2724.08 3565.88 2724.08 3571.42 2725.6 3571.33 2727.11 3571.25 2728.67 3571.16 2733.77 3571.42 2733.77 3571.42 2736.53 3573.06 2737.92 3575.57 2737.92 3575.57 2737.66 3579.11 2736.53 3582.48 2736.53 3582.48 2733.77 3585.25 2728.75 3585.42 2728.75 3585.42 2724.08 3585.25 2723.74 3586.51 2723.4 3587.76 2723.05 3589.05 2721.23 3593.77 2719.77 3596.03 2715.78 3599.08 2713.96 3599.08 2712.13 3599.08 2710.25 3599.08 2710.34 3600.6 2710.42 3602.11 2710.51 3603.67 2710.25 3608.77 2710.25 3608.77 2708.69 3611.53 2704.74 3613.64 2702 3612.72 2697.8 3611.53 2695.76 3607.44 2696.33 3603.59 2696.42 3599.08 2691.85 3599.08 2687.29 3599.08 2682.58 3599.08 2682.58 3603.65 2682.58 3608.21 2682.58 3612.92 2683.58 3613 2684.58 3613.09 2685.61 3613.18 2690.79 3614.67 2693.04 3617.07 2696.42 3621.22 2696.42 3623.04 2696.42 3624.87 2696.42 3626.75 2697.42 3626.84 2698.41 3626.92 2699.44 3627.01 2704.9 3628.59 2706.81 3630.5 2710.25 3635.05 2711.2 3639.97 2711.09 3644.75 2710.94 3649.75 2710.95 3651.73 2710.95 3651.73 2710.95 3653.75 2710.82 3663.33 2710.82 3663.33 2708.4 3666.6 2706.1 3668.25 2706.1 3668.25 2701.78 3667.99 2699.81 3667.43 2699.81 3667.43 2697.8 3666.87 2695.76 3662.78 2696.33 3658.92 2696.42 3654.42 2695.42 3654.33 2694.42 3654.25 2693.39 3654.16 2687.69 3652.51 2685.9 3651.14 2682.58 3646.12 2681.99 3639.62 2682.19 3633.25 2682.58 3626.75 2680.97 3626.48 2680.97 3626.48 2679.32 3626.21 2674.68 3625.14 2673.04 3623.57 2670.13 3619.83 2669.1 3616.03 2669.1 3616.03 2668.75 3612.92 2667.75 3612.83 2666.75 3612.75 2665.72 3612.66 2660.37 3611.11 2658.24 3609.08 2654.92 3604.62 2653.93 3598.97 2653.43 3595.81 2656.6 3590.99 2658.72 3588.71 2660.54 3586.87 2663.22 3585.25 2665.04 3585.25 2666.87 3585.25 2668.75 3585.25 2668.68 3582.78 2668.68 3582.78 2668.6 3580.25 2668.57 3578.08 2668.53 3575.92 2668.49 3573.75 2668.44 3572.12 2668.44 3572.12 2668.39 3570.46 2668.37 3569.41 2668.36 3568.36 2668.34 3567.28 2668.31 3565.84 2668.31 3565.84 2668.28 3564.36 2669.16 3559.43 2671.54 3557.48 2676.44 3557.84Z" fill="#632151"/><path d="M2882.08 3609.06C2891.56 3615.34 2898.59 3625.61 2901.76 3636.52 2903.87 3651.29 2901.68 3662.18 2894.67 3675.43 2889.02 3682.29 2881.97 3689.95 2873.48 3693.15 2871.2 3693.15 2868.92 3693.15 2866.57 3693.15 2866.11 3685.39 2865.65 3677.63 2865.18 3669.63 2867.12 3668.89 2869.06 3668.15 2871.06 3667.39 2877.33 3664.51 2880.5 3662.42 2883.17 3655.8 2883.98 3647.34 2884.41 3639.89 2880.4 3632.28 2880.06 3628.55 2880.27 3624.98 2880.4 3621.22 2878.86 3621.89 2877.32 3622.56 2875.73 3623.26 2868.93 3625.8 2862.69 3625.98 2855.5 3625.89 2853.73 3625.91 2853.73 3625.91 2851.93 3625.93 2843.92 3625.9 2837.95 3624.43 2830.6 3621.22 2830.63 3622.17 2830.66 3623.12 2830.7 3624.1 2830.73 3625.97 2830.73 3625.97 2830.77 3627.87 2830.81 3629.11 2830.84 3630.35 2830.87 3631.62 2830.6 3635.05 2830.6 3635.05 2827.83 3639.2 2826.9 3646.72 2826.93 3653.6 2829.82 3660.64 2834.56 3665.27 2839.65 3667.39 2845.82 3669.63 2845.36 3671.92 2844.9 3674.2 2844.43 3676.55 2837.16 3677.16 2837.16 3677.16 2833.37 3676.55 2830.34 3673.26 2830.34 3673.26 2827.83 3669.63 2824.21 3667.79 2824.21 3667.79 2820.92 3666.87 2820.92 3667.78 2820.92 3668.69 2820.92 3669.63 2821.72 3669.92 2822.51 3670.2 2823.34 3670.5 2826.45 3672.4 2826.45 3672.4 2828.78 3676.64 2831.48 3680.9 2831.48 3680.9 2835.1 3681.55 2838.23 3681.88 2841.29 3682.07 2844.43 3682.08 2844.43 3685.74 2844.43 3689.39 2844.43 3693.15 2833.34 3692.69 2826.55 3686.84 2819.19 3678.88 2810.6 3668.3 2807.17 3655.49 2808.47 3641.97 2811.27 3627.04 2819.67 3616.08 2831.98 3607.38 2848.27 3597.91 2866.09 3600.29 2882.08 3609.06Z" fill="#1D1B1B"/><path d="M2965.3 3598.13C2966.87 3598.15 2966.87 3598.15 2968.48 3598.17 2975.7 3598.49 2980.44 3599.69 2985.62 3605.03 2986.92 3607.38 2986.92 3607.38 2986.92 3612.92 2988.43 3612.83 2989.94 3612.74 2991.5 3612.66 2996.6 3612.92 2996.6 3612.92 2999.37 3614.56 3000.75 3617.07 3000.75 3617.07 3000.49 3620.61 2999.37 3623.98 2999.37 3623.98 2996.6 3626.75 2991.59 3626.92 2991.59 3626.92 2986.92 3626.75 2986.92 3631.31 2986.92 3635.88 2986.92 3640.58 2987.92 3640.67 2988.91 3640.75 2989.94 3640.84 2995.36 3642.41 2997.49 3644.28 3000.75 3648.88 3001.4 3655.07 3000.51 3659.81 2996.77 3664.79 2991.58 3668.45 2987.3 3668.4 2981.12 3668.34 2978.87 3668.32 2978.87 3668.32 2976.57 3668.3 2975.42 3668.28 2974.27 3668.27 2973.08 3668.25 2973.17 3669.76 2973.25 3671.27 2973.34 3672.83 2973.08 3677.93 2973.08 3677.93 2971.53 3680.7 2967.57 3682.81 2964.83 3681.89 2960.63 3680.7 2958.59 3676.61 2959.17 3672.76 2959.25 3668.25 2957.99 3667.91 2956.74 3667.56 2955.45 3667.21 2950.62 3665.36 2948.62 3663.95 2945.42 3659.95 2944.79 3656.27 2944.79 3656.27 2944.88 3652.15 2944.9 3649.93 2944.9 3649.93 2944.93 3647.66 2944.98 3646.12 2945.02 3644.59 2945.07 3643 2945.1 3641.45 2945.12 3639.89 2945.15 3638.28 2945.21 3634.44 2945.3 3630.59 2945.42 3626.75 2943.77 3626.8 2942.12 3626.85 2940.42 3626.9 2938.25 3626.93 2936.08 3626.97 2933.92 3627.01 2932.83 3627.04 2931.74 3627.08 2930.62 3627.11 2929.58 3627.13 2928.53 3627.14 2927.45 3627.15 2926.49 3627.18 2925.52 3627.2 2924.53 3627.22 2921.06 3626.6 2919.83 3625.41 2917.75 3622.6 2918.01 3618.28 2918.01 3618.28 2919.13 3614.3 2923.71 3612.01 2928.8 3612.78 2933.83 3612.83 2935.49 3612.84 2935.49 3612.84 2937.19 3612.85 2939.93 3612.86 2942.68 3612.89 2945.42 3612.92 2945.5 3611.92 2945.59 3610.92 2945.68 3609.89 2948.67 3599.51 2955.71 3597.89 2965.3 3598.13Z" fill="#2A3D66"/><path d="M2870.11 3779.18C2873.48 3780.3 2873.48 3780.3 2876.25 3783.07 2876.42 3788.08 2876.42 3788.08 2876.25 3792.75 2880.81 3792.75 2885.38 3792.75 2890.08 3792.75 2890.17 3791.75 2890.25 3790.75 2890.34 3789.72 2891.87 3784.42 2894.01 3782.25 2898.38 3778.92 2903.35 3777.9 2906.34 3778.04 2910.89 3780.35 2913.82 3782.44 2915.77 3784.21 2917.75 3787.22 2918.72 3793.37 2917.49 3798.06 2913.95 3803.13 2910.54 3805.4 2907.96 3806.13 2903.92 3806.58 2904 3808.1 2904.09 3809.61 2904.18 3811.17 2903.92 3816.27 2903.92 3816.27 2902.36 3819.03 2898.4 3821.14 2895.66 3820.22 2891.47 3819.03 2889.42 3814.94 2890 3811.09 2890.08 3806.58 2885.52 3806.58 2880.95 3806.58 2876.25 3806.58 2876.25 3811.15 2876.25 3815.71 2876.25 3820.42 2877.76 3820.33 2879.27 3820.25 2880.83 3820.16 2885.93 3820.42 2885.93 3820.42 2888.7 3822.06 2890.08 3824.57 2890.08 3824.57 2889.82 3828.11 2888.7 3831.48 2888.7 3831.48 2885.93 3834.25 2880.92 3834.42 2880.92 3834.42 2876.25 3834.25 2875.88 3835.53 2875.51 3836.82 2875.13 3838.14 2873.59 3842.27 2872.76 3844.1 2869.33 3846.7 2863.56 3848.63 2858.09 3848.39 2852.04 3848.43 2850.84 3848.46 2849.64 3848.49 2848.4 3848.52 2847.25 3848.52 2846.1 3848.53 2844.91 3848.54 2843.33 3848.56 2843.33 3848.56 2841.72 3848.58 2838.12 3847.95 2836.88 3846.86 2834.75 3843.93 2835.01 3839.61 2835.01 3839.61 2836.13 3835.63 2840.71 3833.35 2845.81 3834.11 2850.83 3834.16 2854.65 3834.19 2858.48 3834.22 2862.42 3834.25 2862.42 3825.12 2862.42 3815.99 2862.42 3806.58 2859.22 3806.58 2856.03 3806.58 2852.73 3806.58 2849.97 3805.03 2849.97 3805.03 2848.58 3802.43 2848.84 3798.11 2848.84 3798.11 2849.97 3794.13 2854.06 3792.09 2857.91 3792.67 2862.42 3792.75 2862.33 3791.24 2862.24 3789.73 2862.16 3788.17 2862.42 3783.07 2862.42 3783.07 2864.06 3780.3 2866.57 3778.92 2866.57 3778.92 2870.11 3779.18Z" fill="#3D3460"/><path d="M2773.28 3654.68C2776.65 3655.8 2776.65 3655.8 2779.42 3658.57 2779.59 3663.58 2779.59 3663.58 2779.42 3668.25 2780.91 3668.38 2780.91 3668.38 2782.44 3668.51 2787.72 3670.04 2789.79 3672.31 2793.25 3676.55 2794.1 3681.21 2794.1 3681.21 2794.07 3686.46 2794.07 3687.39 2794.07 3688.33 2794.07 3689.29 2794.06 3691.25 2794.04 3693.21 2794 3695.17 2793.94 3698.17 2793.94 3701.16 2793.95 3704.16 2793.84 3718.57 2793.84 3718.57 2791.4 3722.12 2789.1 3723.58 2789.1 3723.58 2784.78 3723.32 2783.46 3722.95 2782.15 3722.58 2780.8 3722.2 2778.75 3718.11 2779.33 3714.26 2779.42 3709.75 2778.42 3709.67 2777.42 3709.58 2776.39 3709.49 2770.69 3707.84 2768.9 3706.48 2765.58 3701.45 2764.99 3694.96 2765.19 3688.59 2765.58 3682.08 2763.93 3682.13 2762.28 3682.18 2760.58 3682.23 2758.42 3682.27 2756.25 3682.31 2754.08 3682.34 2753 3682.38 2751.91 3682.41 2750.79 3682.45 2749.74 3682.46 2748.7 3682.48 2747.62 3682.49 2746.65 3682.51 2745.69 3682.53 2744.7 3682.56 2741.22 3681.93 2739.99 3680.75 2737.92 3677.93 2738.18 3673.61 2738.18 3673.61 2739.3 3669.63 2743.88 3667.34 2748.97 3668.11 2754 3668.16 2755.66 3668.17 2755.66 3668.17 2757.36 3668.18 2760.1 3668.2 2762.84 3668.22 2765.58 3668.25 2765.55 3666.71 2765.52 3665.17 2765.48 3663.58 2765.58 3658.57 2765.58 3658.57 2767.23 3655.8 2769.73 3654.42 2769.73 3654.42 2773.28 3654.68Z" fill="#522957"/><path d="M2992.45 3556.89C2993.42 3556.89 2994.38 3556.88 2995.38 3556.88 3001.55 3557 3005.51 3558.01 3010.43 3561.73 3011.26 3562.3 3012.08 3562.86 3012.92 3563.45 3015.61 3567.39 3014.97 3571.15 3014.84 3575.83 3014.79 3578.47 3014.79 3578.47 3014.73 3581.16 3014.68 3582.51 3014.63 3583.86 3014.58 3585.25 3016.12 3585.22 3017.66 3585.18 3019.25 3585.15 3024.27 3585.25 3024.27 3585.25 3027.03 3586.89 3028.42 3589.4 3028.42 3589.4 3028.16 3592.94 3027.03 3596.32 3027.03 3596.32 3024.27 3599.08 3019.25 3599.26 3019.25 3599.26 3014.58 3599.08 3014.67 3600.6 3014.75 3602.11 3014.84 3603.67 3014.58 3608.77 3014.58 3608.77 3013.03 3611.53 3009.07 3613.64 3006.33 3612.72 3002.13 3611.53 2999.84 3606.95 3000.61 3601.86 3000.66 3596.84 3000.67 3595.73 3000.68 3594.62 3000.68 3593.47 3000.7 3590.73 3000.72 3587.99 3000.75 3585.25 2999.64 3585.27 2998.53 3585.29 2997.39 3585.32 2992.37 3585.4 2987.35 3585.46 2982.33 3585.51 2979.71 3585.56 2979.71 3585.56 2977.04 3585.61 2974.53 3585.63 2974.53 3585.63 2971.98 3585.66 2969.66 3585.69 2969.66 3585.69 2967.3 3585.72 2963.4 3585.25 2963.4 3585.25 2960.77 3583.42 2959.25 3581.1 2959.25 3581.1 2959.51 3576.78 2959.88 3575.46 2960.25 3574.15 2960.63 3572.8 2964.72 3570.75 2968.58 3571.33 2973.08 3571.42 2973.21 3569.92 2973.21 3569.92 2973.34 3568.39 2976.2 3558.49 2983.02 3556.51 2992.45 3556.89Z" fill="#244169"/><path d="M2945.42 3737.42C2959.11 3737.42 2972.81 3737.42 2986.92 3737.42 2986.92 3751.11 2986.92 3764.81 2986.92 3778.92 2973.22 3778.92 2959.53 3778.92 2945.42 3778.92 2945.42 3765.22 2945.42 3751.53 2945.42 3737.42Z" fill="#FEFEFE"/><path d="M2702.04 3473.81C2703.48 3473.81 2703.48 3473.81 2704.95 3473.81 2711.08 3473.97 2715.05 3475.05 2719.93 3478.73 2720.75 3479.28 2721.57 3479.82 2722.41 3480.39 2725.17 3484.5 2724.68 3489 2724.6 3493.78 2724.62 3494.76 2724.63 3495.74 2724.65 3496.74 2724.62 3502.98 2723.92 3507.08 2719.93 3511.93 2714.37 3516.44 2708.97 3516.84 2702.04 3516.86 2701.08 3516.91 2700.13 3516.96 2699.14 3517.02 2693.72 3517.06 2690.15 3516.15 2686.1 3512.66 2681.44 3507.32 2681.34 3502.18 2681.55 3495.33 2681.51 3494.25 2681.48 3493.17 2681.45 3492.06 2681.51 3486.27 2682.23 3482.44 2686.1 3478 2690.97 3473.82 2695.81 3473.47 2702.04 3473.81Z" fill="#020202"/><path d="M2716.9 3780.78C2717.9 3781.54 2718.9 3782.29 2719.93 3783.07 2720.75 3783.61 2721.57 3784.16 2722.41 3784.72 2725.17 3788.83 2724.68 3793.33 2724.6 3798.11 2724.62 3799.09 2724.63 3800.07 2724.65 3801.08 2724.62 3807.32 2723.92 3811.42 2719.93 3816.27 2714.34 3820.82 2708.92 3821.13 2701.95 3821.11 2700.98 3821.15 2700.02 3821.19 2699.02 3821.23 2693.55 3821.25 2691.14 3820.62 2686.82 3817.18 2680.33 3808.82 2681.61 3797.29 2682.58 3787.22 2683.75 3783.62 2684.6 3782.25 2687.59 3780 2696.31 3777.13 2708.58 3776.79 2716.9 3780.78Z" fill="#020202"/><path d="M3021.24 3476.45C3022.24 3477.2 3023.24 3477.96 3024.27 3478.73 3025.08 3479.28 3025.9 3479.82 3026.74 3480.39 3029.5 3484.5 3029.01 3489 3028.94 3493.78 3028.95 3494.76 3028.97 3495.74 3028.98 3496.74 3028.95 3502.98 3028.25 3507.08 3024.27 3511.93 3018.68 3516.49 3013.25 3516.8 3006.28 3516.78 3005.32 3516.81 3004.35 3516.85 3003.36 3516.89 2997.88 3516.91 2995.47 3516.29 2991.15 3512.84 2984.67 3504.49 2985.95 3492.96 2986.92 3482.88 2988.09 3479.29 2988.93 3477.92 2991.93 3475.67 3000.64 3472.79 3012.92 3472.46 3021.24 3476.45Z" fill="#020202"/><path d="M2814.78 3544.01C2818.15 3545.13 2818.15 3545.13 2820.92 3547.9 2821.09 3552.91 2821.09 3552.91 2820.92 3557.58 2821.83 3557.54 2822.74 3557.5 2823.68 3557.45 2827.86 3557.28 2832.04 3557.17 2836.22 3557.06 2837.66 3556.99 2839.09 3556.93 2840.57 3556.85 2847.67 3556.72 2852.82 3556.78 2858.55 3561.27 2861.49 3564.29 2862.37 3565.73 2863.51 3569.88 2863.43 3571.16 2863.36 3572.43 2863.28 3573.75 2863.22 3575.68 2863.22 3575.68 2863.16 3577.66 2862.32 3581.55 2861.52 3582.98 2858.27 3585.25 2853.94 3584.99 2853.94 3584.99 2849.97 3583.87 2847.92 3579.78 2848.5 3575.92 2848.58 3571.42 2844.02 3571.42 2839.45 3571.42 2834.75 3571.42 2834.83 3572.93 2834.92 3574.44 2835.01 3576 2834.75 3581.1 2834.75 3581.1 2833.19 3583.87 2829.24 3585.98 2826.49 3585.05 2822.3 3583.87 2820.25 3579.78 2820.83 3575.92 2820.92 3571.42 2819.27 3571.46 2817.62 3571.51 2815.92 3571.56 2813.75 3571.6 2811.58 3571.64 2809.42 3571.68 2808.33 3571.71 2807.24 3571.75 2806.12 3571.78 2805.08 3571.79 2804.03 3571.81 2802.95 3571.82 2801.99 3571.84 2801.02 3571.87 2800.03 3571.89 2796.55 3571.27 2795.33 3570.08 2793.25 3567.27 2793.51 3562.94 2793.51 3562.94 2794.63 3558.97 2798.72 3556.92 2802.58 3557.5 2807.08 3557.58 2807 3556.07 2806.91 3554.56 2806.82 3553 2807.08 3547.9 2807.08 3547.9 2808.73 3545.13 2811.23 3543.75 2811.23 3543.75 2814.78 3544.01Z" fill="#472F5C"/><path d="M2755.47 3556.98C2757.31 3556.88 2757.31 3556.88 2759.18 3556.79 2767.34 3556.65 2771.74 3558.04 2777.8 3563.55 2779.42 3565.88 2779.42 3565.88 2779.42 3571.42 2780.93 3571.33 2782.44 3571.25 2784 3571.16 2789.1 3571.42 2789.1 3571.42 2791.87 3573.06 2793.25 3575.57 2793.25 3575.57 2792.99 3579.11 2791.87 3582.48 2791.87 3582.48 2789.1 3585.25 2784.09 3585.42 2784.09 3585.42 2779.42 3585.25 2779.5 3586.76 2779.59 3588.27 2779.68 3589.83 2779.42 3594.93 2779.42 3594.93 2777.86 3597.7 2773.91 3599.81 2771.16 3598.89 2766.97 3597.7 2764.92 3593.61 2765.5 3589.76 2765.58 3585.25 2764.58 3585.16 2763.59 3585.08 2762.56 3584.99 2757.38 3583.49 2755.12 3581.09 2751.75 3576.95 2751.75 3575.12 2751.75 3573.3 2751.75 3571.42 2750.24 3571.5 2748.73 3571.59 2747.17 3571.68 2742.07 3571.42 2742.07 3571.42 2739.3 3569.86 2737.19 3565.91 2738.11 3563.16 2739.3 3558.97 2744.28 3556.48 2749.98 3557.09 2755.47 3556.98Z" fill="#552957"/><path d="M2717.94 3696.18C2721.32 3697.3 2721.32 3697.3 2724.08 3700.07 2724.96 3705.86 2724.68 3711.08 2722.44 3716.49 2719.59 3719.83 2716.95 3721.67 2713.02 3723.58 2712.1 3723.58 2711.19 3723.58 2710.25 3723.58 2710.34 3725.1 2710.42 3726.61 2710.51 3728.17 2710.25 3733.27 2710.25 3733.27 2708.69 3736.03 2704.74 3738.14 2702 3737.22 2697.8 3736.03 2695.76 3731.94 2696.33 3728.09 2696.42 3723.58 2694.77 3723.63 2693.12 3723.68 2691.42 3723.73 2689.25 3723.77 2687.08 3723.81 2684.92 3723.84 2683.83 3723.88 2682.74 3723.91 2681.62 3723.95 2680.58 3723.96 2679.53 3723.98 2678.45 3723.99 2677.49 3724.01 2676.52 3724.03 2675.53 3724.06 2672.06 3723.43 2670.83 3722.25 2668.75 3719.43 2669.01 3715.11 2669.01 3715.11 2670.13 3711.13 2673.96 3709.22 2677.06 3709.6 2681.34 3709.62 2683.02 3709.62 2684.69 3709.62 2686.42 3709.63 2688.18 3709.64 2689.94 3709.65 2691.75 3709.66 2693.52 3709.67 2695.29 3709.68 2697.11 3709.68 2701.49 3709.7 2705.87 3709.72 2710.25 3709.75 2710.22 3708.21 2710.18 3706.67 2710.15 3705.08 2710.25 3700.07 2710.25 3700.07 2711.89 3697.3 2714.4 3695.92 2714.4 3695.92 2717.94 3696.18Z" fill="#622151"/><path d="M3049.94 3585.51C3053.32 3586.63 3053.32 3586.63 3056.08 3589.4 3056.96 3595.2 3056.68 3600.41 3054.44 3605.83 3051.59 3609.17 3048.95 3611 3045.02 3612.92 3044.1 3612.92 3043.19 3612.92 3042.25 3612.92 3042.32 3615.39 3042.32 3615.39 3042.4 3617.92 3042.43 3620.08 3042.47 3622.25 3042.51 3624.42 3042.54 3625.5 3042.58 3626.59 3042.61 3627.71 3042.63 3628.76 3042.64 3629.8 3042.65 3630.88 3042.68 3631.85 3042.7 3632.81 3042.72 3633.8 3042.1 3637.28 3040.91 3638.51 3038.1 3640.58 3033.78 3640.32 3033.78 3640.32 3029.8 3639.2 3027.75 3635.11 3028.33 3631.26 3028.42 3626.75 3025.62 3626.89 3022.83 3627.02 3020.04 3627.16 3019.15 3627.02 3018.26 3626.89 3017.35 3626.75 3014.58 3622.6 3014.58 3622.6 3014.93 3618.28 3015.27 3616.97 3015.61 3615.65 3015.97 3614.3 3020.06 3612.26 3023.91 3612.83 3028.42 3612.92 3028.54 3611.42 3028.54 3611.42 3028.68 3609.89 3030.17 3604.71 3032.57 3602.46 3036.72 3599.08 3038.54 3599.08 3040.37 3599.08 3042.25 3599.08 3042.16 3597.57 3042.08 3596.06 3041.99 3594.5 3042.25 3589.4 3042.25 3589.4 3043.89 3586.63 3046.4 3585.25 3046.4 3585.25 3049.94 3585.51Z" fill="#1D476D"/><path d="M2937.78 3487.77C2941.74 3488.5 2943.11 3489.3 2945.42 3492.57 2945.08 3497.19 2944.58 3498.94 2941.27 3502.25 2936.25 3502.42 2936.25 3502.42 2931.58 3502.25 2931.16 3504.52 2931.16 3504.52 2930.72 3506.83 2928.82 3511.93 2928.82 3511.93 2924.67 3514.61 2920.52 3516.08 2920.52 3516.08 2917.75 3516.08 2917.8 3517.73 2917.85 3519.38 2917.9 3521.08 2917.94 3523.25 2917.97 3525.42 2918.01 3527.58 2918.06 3529.21 2918.06 3529.21 2918.12 3530.88 2918.14 3532.45 2918.14 3532.45 2918.16 3534.05 2918.19 3535.5 2918.19 3535.5 2918.22 3536.97 2917.6 3540.44 2916.41 3541.67 2913.6 3543.75 2909.28 3543.49 2909.28 3543.49 2905.3 3542.37 2902.72 3537.2 2903.42 3531.11 2903.31 3525.42 2903.25 3524.12 2903.19 3522.81 2903.12 3521.47 2903.01 3514.87 2903.12 3510.44 2907.76 3505.47 2912.22 3502.25 2912.22 3502.25 2917.75 3502.25 2917.88 3500.75 2917.88 3500.75 2918.01 3499.22 2921.1 3488.54 2927.87 3487.66 2937.78 3487.77Z" fill="#353A64"/><path d="M2925.44 3654.68C2928.82 3655.8 2928.82 3655.8 2931.58 3658.57 2931.76 3663.58 2931.76 3663.58 2931.58 3668.25 2933.08 3668.38 2933.08 3668.38 2934.61 3668.51 2939.79 3670.01 2942.04 3672.41 2945.42 3676.55 2945.42 3678.38 2945.42 3680.2 2945.42 3682.08 2946.41 3682.17 2947.41 3682.26 2948.44 3682.34 2953.96 3683.94 2955.94 3685.66 2959.25 3690.38 2960.19 3696.42 2961.12 3703.01 2957.4 3708.16 2955.1 3709.75 2955.1 3709.75 2950.78 3709.49 2949.46 3709.12 2948.15 3708.75 2946.8 3708.37 2944.75 3704.28 2945.33 3700.42 2945.42 3695.92 2944.42 3695.83 2943.42 3695.75 2942.39 3695.66 2937.21 3694.16 2934.96 3691.76 2931.58 3687.62 2931.58 3685.79 2931.58 3683.97 2931.58 3682.08 2930.07 3681.74 2928.56 3681.4 2927 3681.05 2921.57 3679.21 2920.48 3678.58 2917.75 3673.78 2917.2 3670.06 2917.2 3670.06 2917.23 3666.09 2917.22 3664.78 2917.21 3663.46 2917.2 3662.11 2917.75 3658.57 2917.75 3658.57 2919.64 3656.01 2921.9 3654.42 2921.9 3654.42 2925.44 3654.68Z" fill="#343E67"/><path d="M2773.28 3488.68C2776.65 3489.8 2776.65 3489.8 2779.42 3492.57 2779.62 3496.59 2779.67 3500.48 2779.59 3504.5 2779.58 3505.61 2779.56 3506.72 2779.55 3507.86 2779.52 3510.6 2779.47 3513.34 2779.42 3516.08 2780.96 3516.05 2782.5 3516.02 2784.09 3515.98 2789.1 3516.08 2789.1 3516.08 2791.87 3517.73 2793.25 3520.23 2793.25 3520.23 2792.99 3523.78 2791.87 3527.15 2791.87 3527.15 2789.1 3529.92 2784.09 3530.09 2784.09 3530.09 2779.42 3529.92 2779.5 3531.43 2779.59 3532.94 2779.68 3534.5 2779.42 3539.6 2779.42 3539.6 2777.86 3542.37 2773.91 3544.48 2771.16 3543.55 2766.97 3542.37 2764.87 3538.17 2765.33 3533.79 2765.3 3529.19 2765.29 3528.16 2765.29 3527.13 2765.28 3526.07 2765.27 3523.89 2765.26 3521.7 2765.25 3519.52 2765.24 3516.19 2765.19 3512.85 2765.15 3509.52 2765.14 3507.4 2765.13 3505.28 2765.13 3503.16 2765.11 3502.16 2765.1 3501.17 2765.08 3500.14 2765.1 3496.05 2765.12 3493.25 2767.47 3489.81 2769.73 3488.42 2769.73 3488.42 2773.28 3488.68Z" fill="#522957"/><path d="M2939.28 3516.34C2942.65 3517.47 2942.65 3517.47 2945.42 3520.23 2945.73 3523.98 2945.73 3523.98 2945.69 3528.67 2945.67 3531.19 2945.67 3531.19 2945.66 3533.75 2945.64 3535.51 2945.61 3537.27 2945.59 3539.08 2945.58 3540.85 2945.56 3542.62 2945.55 3544.44 2945.52 3548.82 2945.47 3553.2 2945.42 3557.58 2946.96 3557.55 2948.5 3557.52 2950.08 3557.48 2955.1 3557.58 2955.1 3557.58 2957.87 3559.23 2959.25 3561.73 2959.25 3561.73 2958.99 3565.28 2957.87 3568.65 2957.87 3568.65 2955.1 3571.42 2949.97 3572.2 2945.02 3572.17 2939.88 3571.42 2935.56 3568.04 2935.56 3568.04 2932.97 3564.5 2932.51 3564.04 2932.05 3563.59 2931.58 3563.12 2931.25 3557.06 2931.27 3550.99 2931.25 3544.92 2931.24 3541.87 2931.19 3538.82 2931.15 3535.77 2931.14 3533.84 2931.13 3531.91 2931.13 3529.97 2931.12 3528.2 2931.1 3526.44 2931.09 3524.62 2931.58 3520.23 2931.58 3520.23 2933.46 3517.53 2935.73 3516.08 2935.73 3516.08 2939.28 3516.34Z" fill="#303B65"/><path d="M3022.28 3723.84C3025.65 3724.97 3025.65 3724.97 3028.42 3727.73 3028.59 3732.75 3028.59 3732.75 3028.42 3737.42 3029.91 3737.55 3029.91 3737.55 3031.44 3737.68 3036.96 3739.27 3038.94 3740.99 3042.25 3745.72 3043.19 3751.75 3044.12 3758.34 3040.4 3763.49 3038.1 3765.08 3038.1 3765.08 3033.78 3764.82 3032.46 3764.45 3031.15 3764.08 3029.8 3763.7 3027.75 3759.61 3028.33 3755.76 3028.42 3751.25 3027.42 3751.17 3026.42 3751.08 3025.39 3750.99 3019.87 3749.4 3017.89 3747.68 3014.58 3742.95 3013.77 3737.79 3013.63 3732.88 3014.58 3727.73 3017.21 3724.19 3017.78 3723.51 3022.28 3723.84Z" fill="#21476E"/><path d="M2838.9 3446.92C2843.06 3449.05 2846 3451.29 2848.58 3455.22 2849.54 3461.3 2848.28 3466.01 2844.95 3471.12 2840.5 3473.93 2837.23 3474.49 2831.98 3474.58 2828.18 3472.85 2828.18 3472.85 2825.07 3470.43 2824.24 3469.89 2823.41 3469.35 2822.56 3468.79 2820.31 3465.35 2820.09 3462.14 2820.26 3458.09 2821.27 3453.69 2823.38 3451.3 2826.76 3448.41 2831.17 3445.73 2833.92 3445.87 2838.9 3446.92Z" fill="#48325E"/><path d="M2747.6 3640.58C2750.15 3642.49 2750.15 3642.49 2751.75 3644.73 2751.41 3649.36 2750.91 3651.1 2747.6 3654.42 2742.59 3654.59 2742.59 3654.59 2737.92 3654.42 2738 3655.93 2738.09 3657.44 2738.18 3659 2737.92 3664.1 2737.92 3664.1 2736.36 3666.87 2732.41 3668.98 2729.66 3668.05 2725.47 3666.87 2722.7 3661.32 2723.24 3654.9 2724.08 3648.88 2728.51 3639.32 2738.13 3638.66 2747.6 3640.58Z" fill="#5C2756"/><path d="M2759.44 3599.34C2762.82 3600.47 2762.82 3600.47 2765.58 3603.23 2766.47 3609.1 2766.23 3614.26 2763.77 3619.66 2763 3620.63 2762.23 3621.6 2761.43 3622.6 2760.57 3623.7 2760.57 3623.7 2759.69 3624.83 2756.33 3627.52 2753.93 3627.3 2749.68 3627.27 2748.35 3627.28 2747.02 3627.29 2745.65 3627.3 2742.07 3626.75 2742.07 3626.75 2739.5 3624.91 2737.92 3622.6 2737.92 3622.6 2738.18 3618.28 2738.55 3616.97 2738.92 3615.65 2739.3 3614.3 2743.39 3612.26 2747.24 3612.83 2751.75 3612.92 2751.66 3611.41 2751.58 3609.89 2751.49 3608.34 2751.75 3603.23 2751.75 3603.23 2753.39 3600.47 2755.9 3599.08 2755.9 3599.08 2759.44 3599.34Z" fill="#582957"/><path d="M2959.25 3626.75C2963.81 3626.75 2968.38 3626.75 2973.08 3626.75 2973.08 3635.88 2973.08 3645.01 2973.08 3654.42 2968.52 3654.42 2963.95 3654.42 2959.25 3654.42 2959.25 3645.29 2959.25 3636.16 2959.25 3626.75Z" fill="#FFFFFF"/><path d="M3049.94 3710.01C3053.32 3711.13 3053.32 3711.13 3056.08 3713.9 3056.5 3718.26 3056.5 3718.26 3056.51 3723.5 3056.54 3725.22 3056.56 3726.95 3056.59 3728.72 3056.08 3733.27 3056.08 3733.27 3054.25 3735.97 3051.93 3737.42 3051.93 3737.42 3047.61 3737.16 3046.3 3736.79 3044.98 3736.42 3043.63 3736.03 3041.59 3731.95 3041.96 3728.22 3041.9 3723.67 3041.87 3721.95 3041.83 3720.22 3041.8 3718.45 3042.25 3713.9 3042.25 3713.9 3044.12 3711.2 3046.4 3709.75 3046.4 3709.75 3049.94 3710.01Z" fill="#1C496F"/><path d="M2779.33 3820.07C2781.05 3820.04 2782.78 3820 2784.56 3819.96 2789.1 3820.42 2789.1 3820.42 2791.8 3822.29 2793.25 3824.57 2793.25 3824.57 2792.99 3828.11 2791.87 3831.48 2791.87 3831.48 2789.1 3834.25 2784.74 3834.67 2784.74 3834.67 2779.5 3834.68 2777.78 3834.71 2776.05 3834.73 2774.28 3834.75 2769.73 3834.25 2769.73 3834.25 2767.03 3832.42 2765.58 3830.1 2765.58 3830.1 2765.84 3825.78 2766.21 3824.46 2766.58 3823.15 2766.97 3821.8 2771.05 3819.76 2774.78 3820.13 2779.33 3820.07Z" fill="#522B59"/><path d="M2773.28 3737.68C2776.65 3738.8 2776.65 3738.8 2779.42 3741.57 2779.83 3745.93 2779.83 3745.93 2779.85 3751.16 2779.87 3752.89 2779.9 3754.61 2779.92 3756.39 2779.42 3760.93 2779.42 3760.93 2777.58 3763.64 2775.27 3765.08 2775.27 3765.08 2770.94 3764.82 2769.63 3764.45 2768.32 3764.08 2766.97 3763.7 2764.92 3759.61 2765.29 3755.88 2765.24 3751.34 2765.2 3749.61 2765.17 3747.89 2765.13 3746.11 2765.58 3741.57 2765.58 3741.57 2767.46 3738.87 2769.73 3737.42 2769.73 3737.42 2773.28 3737.68Z" fill="#542A58"/><path d="M2737.83 3723.24C2739.55 3723.2 2741.28 3723.17 2743.06 3723.13 2747.6 3723.58 2747.6 3723.58 2750.3 3725.46 2751.75 3727.73 2751.75 3727.73 2751.49 3731.28 2750.37 3734.65 2750.37 3734.65 2747.6 3737.42 2743.24 3737.83 2743.24 3737.83 2738 3737.85 2736.28 3737.87 2734.55 3737.9 2732.78 3737.92 2728.23 3737.42 2728.23 3737.42 2725.53 3735.58 2724.08 3733.27 2724.08 3733.27 2724.34 3728.94 2724.71 3727.63 2725.08 3726.32 2725.47 3724.97 2729.55 3722.92 2733.28 3723.29 2737.83 3723.24Z" fill="#5B2655"/><path d="M3014.5 3695.57C3016.22 3695.54 3017.95 3695.5 3019.72 3695.46 3024.27 3695.92 3024.27 3695.92 3026.97 3697.79 3028.42 3700.07 3028.42 3700.07 3028.16 3703.61 3027.03 3706.98 3027.03 3706.98 3024.27 3709.75 3019.91 3710.17 3019.91 3710.17 3014.67 3710.18 3012.95 3710.21 3011.22 3710.23 3009.45 3710.25 3004.9 3709.75 3004.9 3709.75 3002.2 3707.92 3000.75 3705.6 3000.75 3705.6 3001.01 3701.28 3001.38 3699.96 3001.75 3698.65 3002.13 3697.3 3006.22 3695.26 3009.95 3695.63 3014.5 3695.57Z" fill="#22446C"/><path d="M3049.94 3640.84C3053.32 3641.97 3053.32 3641.97 3056.08 3644.73 3056.5 3649.09 3056.5 3649.09 3056.51 3654.33 3056.54 3656.06 3056.56 3657.78 3056.59 3659.56 3056.08 3664.1 3056.08 3664.1 3054.25 3666.8 3051.93 3668.25 3051.93 3668.25 3047.61 3667.99 3046.3 3667.62 3044.98 3667.25 3043.63 3666.87 3041.59 3662.78 3041.96 3659.05 3041.9 3654.5 3041.87 3652.78 3041.83 3651.06 3041.8 3649.28 3042.25 3644.73 3042.25 3644.73 3044.12 3642.03 3046.4 3640.58 3046.4 3640.58 3049.94 3640.84Z" fill="#1B486E"/><path d="M3022.28 3640.84C3025.65 3641.97 3025.65 3641.97 3028.42 3644.73 3028.83 3649.09 3028.83 3649.09 3028.85 3654.33 3028.87 3656.06 3028.89 3657.78 3028.92 3659.56 3028.42 3664.1 3028.42 3664.1 3026.58 3666.8 3024.27 3668.25 3024.27 3668.25 3019.94 3667.99 3018.63 3667.62 3017.32 3667.25 3015.97 3666.87 3013.92 3662.78 3014.29 3659.05 3014.24 3654.5 3014.2 3652.78 3014.17 3651.06 3014.13 3649.28 3014.58 3644.73 3014.58 3644.73 3016.46 3642.03 3018.73 3640.58 3018.73 3640.58 3022.28 3640.84Z" fill="#21456C"/><path d="M2856.28 3516.34C2859.65 3517.47 2859.65 3517.47 2862.42 3520.23 2862.83 3524.59 2862.83 3524.59 2862.85 3529.83 2862.87 3531.55 2862.89 3533.28 2862.92 3535.06 2862.42 3539.6 2862.42 3539.6 2860.58 3542.3 2858.27 3543.75 2858.27 3543.75 2853.94 3543.49 2852.63 3543.12 2851.32 3542.75 2849.97 3542.37 2847.92 3538.28 2848.29 3534.55 2848.24 3530 2848.2 3528.28 2848.17 3526.55 2848.13 3524.78 2848.58 3520.23 2848.58 3520.23 2850.46 3517.53 2852.73 3516.08 2852.73 3516.08 2856.28 3516.34Z" fill="#43335F"/><path d="M2748.98 3697.3C2749.9 3698.21 2750.81 3699.13 2751.75 3700.07 2751.29 3704.63 2750.89 3706.46 2747.6 3709.75 2744.14 3710.18 2744.14 3710.18 2740.68 3709.75 2737.92 3705.6 2737.92 3705.6 2738.26 3701.28 2738.78 3699.31 2738.78 3699.31 2739.3 3697.3 2743.04 3695.43 2745.02 3696.21 2748.98 3697.3Z" fill="#5F2E5B"/><path d="M2928.82 3586.63C2929.73 3587.55 2930.64 3588.46 2931.58 3589.4 2931.06 3593.72 2931.06 3593.72 2930.2 3597.7 2922.71 3599.53 2922.71 3599.53 2919.22 3597.61 2917.02 3593.6 2917.92 3590.92 2919.13 3586.63 2922.88 3584.76 2924.85 3585.54 2928.82 3586.63Z" fill="#3A4069"/><path d="M2887.32 3558.97C2888.23 3559.88 2889.14 3560.79 2890.08 3561.73 2889.63 3566.29 2889.22 3568.13 2885.93 3571.42 2882.48 3571.85 2882.48 3571.85 2879.02 3571.42 2876.25 3567.27 2876.25 3567.27 2876.6 3562.94 2877.11 3560.97 2877.11 3560.97 2877.63 3558.97 2881.38 3557.09 2883.35 3557.88 2887.32 3558.97Z" fill="#433C66"/><path d="M2791.87 3545.13C2793.7 3552.62 2793.7 3552.62 2791.78 3556.11 2787.84 3558.27 2785.04 3557.24 2780.8 3556.2 2778.97 3548.71 2778.97 3548.71 2780.89 3545.22 2784.83 3543.06 2787.63 3544.1 2791.87 3545.13Z" fill="#56325E"/><path d="M2887.32 3531.3C2888.23 3532.21 2889.14 3533.13 2890.08 3534.07 2889.56 3538.39 2889.56 3538.39 2888.7 3542.37 2881.21 3544.2 2881.21 3544.2 2877.72 3542.28 2875.52 3538.27 2876.42 3535.58 2877.63 3531.3 2881.38 3529.43 2883.35 3530.21 2887.32 3531.3Z" fill="#433C65"/><path d="M2980.78 3834.51C2984.15 3835.63 2984.15 3835.63 2986.92 3838.4 2986.46 3842.96 2986.05 3844.8 2982.77 3848.08 2978.44 3847.57 2978.44 3847.57 2974.47 3846.7 2972.63 3839.18 2972.63 3839.18 2974.64 3835.72 2977.23 3834.25 2977.23 3834.25 2980.78 3834.51Z" fill="#2E456C"/><path d="M2911.61 3834.51C2914.98 3835.63 2914.98 3835.63 2917.75 3838.4 2917.29 3842.96 2916.89 3844.8 2913.6 3848.08 2909.28 3847.57 2909.28 3847.57 2905.3 3846.7 2903.46 3839.18 2903.46 3839.18 2905.47 3835.72 2908.07 3834.25 2908.07 3834.25 2911.61 3834.51Z" fill="#3C3E67"/><path d="M2814.78 3834.51C2818.15 3835.63 2818.15 3835.63 2820.92 3838.4 2820.46 3842.96 2820.05 3844.8 2816.77 3848.08 2812.44 3847.57 2812.44 3847.57 2808.47 3846.7 2806.63 3839.18 2806.63 3839.18 2808.64 3835.72 2811.23 3834.25 2811.23 3834.25 2814.78 3834.51Z" fill="#50335F"/><path d="M2828.61 3820.68C2831.98 3821.8 2831.98 3821.8 2834.75 3824.57 2834.29 3829.13 2833.89 3830.96 2830.6 3834.25 2826.28 3833.73 2826.28 3833.73 2822.3 3832.87 2820.46 3825.35 2820.46 3825.35 2822.47 3821.89 2825.07 3820.42 2825.07 3820.42 2828.61 3820.68Z" fill="#4D3560"/><path d="M2842.44 3806.84C2845.82 3807.97 2845.82 3807.97 2848.58 3810.73 2848.13 3815.3 2847.72 3817.13 2844.43 3820.42 2840.11 3819.9 2840.11 3819.9 2836.13 3819.03 2834.29 3811.52 2834.29 3811.52 2836.31 3808.05 2838.9 3806.58 2838.9 3806.58 2842.44 3806.84Z" fill="#4A3661"/><path d="M2828.61 3793.01C2831.98 3794.13 2831.98 3794.13 2834.75 3796.9 2834.29 3801.46 2833.89 3803.3 2830.6 3806.58 2826.28 3806.07 2826.28 3806.07 2822.3 3805.2 2820.46 3797.68 2820.46 3797.68 2822.47 3794.22 2825.07 3792.75 2825.07 3792.75 2828.61 3793.01Z" fill="#4D3560"/><path d="M2842.44 3779.18C2845.82 3780.3 2845.82 3780.3 2848.58 3783.07 2848.13 3787.63 2847.72 3789.46 2844.43 3792.75 2840.11 3792.23 2840.11 3792.23 2836.13 3791.37 2834.29 3783.85 2834.29 3783.85 2836.31 3780.39 2838.9 3778.92 2838.9 3778.92 2842.44 3779.18Z" fill="#4A3661"/><path d="M2856.28 3765.34C2859.65 3766.47 2859.65 3766.47 2862.42 3769.23 2861.96 3773.8 2861.55 3775.63 2858.27 3778.92 2853.94 3778.4 2853.94 3778.4 2849.97 3777.53 2848.13 3770.02 2848.13 3770.02 2850.14 3766.55 2852.73 3765.08 2852.73 3765.08 2856.28 3765.34Z" fill="#473762"/><path d="M2966.94 3751.51C2970.32 3752.63 2970.32 3752.63 2973.08 3755.4 2972.63 3759.96 2972.22 3761.8 2968.93 3765.08 2964.61 3764.57 2964.61 3764.57 2960.63 3763.7 2958.79 3756.18 2958.79 3756.18 2960.81 3752.72 2963.4 3751.25 2963.4 3751.25 2966.94 3751.51Z" fill="#31446B"/><path d="M2870.11 3751.51C2873.48 3752.63 2873.48 3752.63 2876.25 3755.4 2875.79 3759.96 2875.39 3761.8 2872.1 3765.08 2867.78 3764.57 2867.78 3764.57 2863.8 3763.7 2861.96 3756.18 2861.96 3756.18 2863.97 3752.72 2866.57 3751.25 2866.57 3751.25 2870.11 3751.51Z" fill="#443964"/><path d="M2897.78 3737.68C2901.15 3738.8 2901.15 3738.8 2903.92 3741.57 2903.46 3746.13 2903.05 3747.96 2899.77 3751.25 2895.44 3750.73 2895.44 3750.73 2891.47 3749.87 2889.63 3742.35 2889.63 3742.35 2891.64 3738.89 2894.23 3737.42 2894.23 3737.42 2897.78 3737.68Z" fill="#3F3C66"/><path d="M2759.44 3710.01C2762.82 3711.13 2762.82 3711.13 2765.58 3713.9 2765.13 3718.46 2764.72 3720.3 2761.43 3723.58 2757.11 3723.07 2757.11 3723.07 2753.13 3722.2 2751.3 3714.68 2751.3 3714.68 2753.31 3711.22 2755.9 3709.75 2755.9 3709.75 2759.44 3710.01Z" fill="#5B2E5B"/><path d="M2925.44 3696.18C2928.82 3697.3 2928.82 3697.3 2931.58 3700.07 2931.13 3704.63 2930.72 3706.46 2927.43 3709.75 2923.11 3709.23 2923.11 3709.23 2919.13 3708.37 2917.29 3700.85 2917.29 3700.85 2919.31 3697.39 2921.9 3695.92 2921.9 3695.92 2925.44 3696.18Z" fill="#393F68"/><path d="M2662.61 3696.18C2665.98 3697.3 2665.98 3697.3 2668.75 3700.07 2668.29 3704.63 2667.89 3706.46 2664.6 3709.75 2660.28 3709.23 2660.28 3709.23 2656.3 3708.37 2654.46 3700.85 2654.46 3700.85 2656.47 3697.39 2659.07 3695.92 2659.07 3695.92 2662.61 3696.18Z" fill="#6E2353"/><path d="M2994.61 3682.34C2997.98 3683.47 2997.98 3683.47 3000.75 3686.23 3000.29 3690.8 2999.89 3692.63 2996.6 3695.92 2992.28 3695.4 2992.28 3695.4 2988.3 3694.53 2986.46 3687.02 2986.46 3687.02 2988.47 3683.55 2991.07 3682.08 2991.07 3682.08 2994.61 3682.34Z" fill="#2B466D"/><path d="M2704.11 3682.34C2707.48 3683.47 2707.48 3683.47 2710.25 3686.23 2709.79 3690.8 2709.39 3692.63 2706.1 3695.92 2701.78 3695.4 2701.78 3695.4 2697.8 3694.53 2695.96 3687.02 2695.96 3687.02 2697.97 3683.55 2700.57 3682.08 2700.57 3682.08 2704.11 3682.34Z" fill="#662856"/><path d="M3036.11 3668.51C3039.48 3669.63 3039.48 3669.63 3042.25 3672.4 3041.79 3676.96 3041.39 3678.8 3038.1 3682.08 3033.78 3681.57 3033.78 3681.57 3029.8 3680.7 3027.96 3673.18 3027.96 3673.18 3029.97 3669.72 3032.57 3668.25 3032.57 3668.25 3036.11 3668.51Z" fill="#234B71"/><path d="M2717.94 3668.51C2721.32 3669.63 2721.32 3669.63 2724.08 3672.4 2723.63 3676.96 2723.22 3678.8 2719.93 3682.08 2715.61 3681.57 2715.61 3681.57 2711.63 3680.7 2709.8 3673.18 2709.8 3673.18 2711.81 3669.72 2714.4 3668.25 2714.4 3668.25 2717.94 3668.51Z" fill="#632958"/><path d="M2690.28 3668.51C2693.65 3669.63 2693.65 3669.63 2696.42 3672.4 2695.96 3676.96 2695.56 3678.8 2692.27 3682.08 2687.94 3681.57 2687.94 3681.57 2683.97 3680.7 2682.13 3673.18 2682.13 3673.18 2684.14 3669.72 2686.73 3668.25 2686.73 3668.25 2690.28 3668.51Z" fill="#682655"/><path d="M2662.61 3668.51C2665.98 3669.63 2665.98 3669.63 2668.75 3672.4 2668.29 3676.96 2667.89 3678.8 2664.6 3682.08 2660.28 3681.57 2660.28 3681.57 2656.3 3680.7 2654.46 3673.18 2654.46 3673.18 2656.47 3669.72 2659.07 3668.25 2659.07 3668.25 2662.61 3668.51Z" fill="#6E2353"/><path d="M2676.44 3654.68C2679.82 3655.8 2679.82 3655.8 2682.58 3658.57 2682.13 3663.13 2681.72 3664.96 2678.43 3668.25 2674.11 3667.73 2674.11 3667.73 2670.13 3666.87 2668.3 3659.35 2668.3 3659.35 2670.31 3655.89 2672.9 3654.42 2672.9 3654.42 2676.44 3654.68Z" fill="#6B2554"/><path d="M2787.11 3627.01C2790.48 3628.13 2790.48 3628.13 2793.25 3630.9 2792.79 3635.46 2792.39 3637.3 2789.1 3640.58 2784.78 3640.07 2784.78 3640.07 2780.8 3639.2 2778.96 3631.68 2778.96 3631.68 2780.97 3628.22 2783.57 3626.75 2783.57 3626.75 2787.11 3627.01Z" fill="#55305D"/><path d="M2745.61 3585.51C2748.98 3586.63 2748.98 3586.63 2751.75 3589.4 2751.29 3593.96 2750.89 3595.8 2747.6 3599.08 2743.28 3598.57 2743.28 3598.57 2739.3 3597.7 2737.46 3590.18 2737.46 3590.18 2739.47 3586.72 2742.07 3585.25 2742.07 3585.25 2745.61 3585.51Z" fill="#5D2C5A"/><path d="M3036.11 3557.84C3039.48 3558.97 3039.48 3558.97 3042.25 3561.73 3041.79 3566.29 3041.39 3568.13 3038.1 3571.42 3033.78 3570.9 3033.78 3570.9 3029.8 3570.03 3027.96 3562.52 3027.96 3562.52 3029.97 3559.05 3032.57 3557.58 3032.57 3557.58 3036.11 3557.84Z" fill="#234B71"/><path d="M2897.78 3544.01C2901.15 3545.13 2901.15 3545.13 2903.92 3547.9 2903.46 3552.46 2903.05 3554.29 2899.77 3557.58 2895.44 3557.06 2895.44 3557.06 2891.47 3556.2 2889.63 3548.68 2889.63 3548.68 2891.64 3545.22 2894.23 3543.75 2894.23 3543.75 2897.78 3544.01Z" fill="#3F3C66"/><path d="M2870.11 3544.01C2873.48 3545.13 2873.48 3545.13 2876.25 3547.9 2875.79 3552.46 2875.39 3554.29 2872.1 3557.58 2867.78 3557.06 2867.78 3557.06 2863.8 3556.2 2861.96 3548.68 2861.96 3548.68 2863.97 3545.22 2866.57 3543.75 2866.57 3543.75 2870.11 3544.01Z" fill="#443963"/><path d="M2800.94 3530.18C2804.32 3531.3 2804.32 3531.3 2807.08 3534.07 2806.63 3538.63 2806.22 3540.46 2802.93 3543.75 2798.61 3543.23 2798.61 3543.23 2794.63 3542.37 2792.79 3534.85 2792.79 3534.85 2794.81 3531.39 2797.4 3529.92 2797.4 3529.92 2800.94 3530.18Z" fill="#52315E"/><path d="M2897.78 3488.68C2901.15 3489.8 2901.15 3489.8 2903.92 3492.57 2903.46 3497.13 2903.05 3498.96 2899.77 3502.25 2895.44 3501.73 2895.44 3501.73 2891.47 3500.87 2889.63 3493.35 2889.63 3493.35 2891.64 3489.89 2894.23 3488.42 2894.23 3488.42 2897.78 3488.68Z" fill="#3F3C66"/></g></svg>